<?xml version="1.0" encoding="UTF-8"?>
<!DOCTYPE svg PUBLIC "-//W3C//DTD SVG 1.1//EN" "http://www.w3.org/Graphics/SVG/1.1/DTD/svg11.dtd">
<svg xmlns="http://www.w3.org/2000/svg" version="1.1" width="512px" height="512px" style="shape-rendering:geometricPrecision; text-rendering:geometricPrecision; image-rendering:optimizeQuality; fill-rule:evenodd; clip-rule:evenodd" xmlns:xlink="http://www.w3.org/1999/xlink">
<g><path style="opacity:0.963" fill="#000000" d="M 158.5,15.5 C 223.168,15.3333 287.834,15.5 352.5,16C 368.667,20.1667 378.833,30.3333 383,46.5C 383.5,100.166 383.667,153.832 383.5,207.5C 389.509,207.334 395.509,207.501 401.5,208C 403.049,209.214 404.215,210.714 405,212.5C 406.567,219.5 408.067,226.5 409.5,233.5C 415.131,235.062 420.631,237.062 426,239.5C 431.9,236.132 437.733,232.632 443.5,229C 446.964,228.183 450.298,228.517 453.5,230C 460,236.5 466.5,243 473,249.5C 473.931,251.459 474.764,253.459 475.5,255.5C 471.634,262.731 467.634,269.898 463.5,277C 465.667,282.997 468.334,288.664 471.5,294C 478.614,295.195 485.614,296.862 492.5,299C 493.333,299.833 494.167,300.667 495,301.5C 495.667,313.5 495.667,325.5 495,337.5C 493.681,339.487 491.848,340.654 489.5,341C 483.171,342.565 476.837,344.065 470.5,345.5C 468.034,350.934 465.701,356.434 463.5,362C 468.118,368.794 472.118,375.96 475.5,383.5C 474.764,385.541 473.931,387.541 473,389.5C 466.136,396.698 458.97,403.532 451.5,410C 448.833,410.667 446.167,410.667 443.5,410C 437.733,406.368 431.9,402.868 426,399.5C 420.631,401.938 415.131,403.938 409.5,405.5C 408.067,412.5 406.567,419.5 405,426.5C 404.215,428.286 403.049,429.786 401.5,431C 393.778,433.588 389.445,430.921 388.5,423C 390.205,414.142 392.038,405.309 394,396.5C 394.785,394.714 395.951,393.214 397.5,392C 407.402,388.714 417.068,384.881 426.5,380.5C 433.587,383.078 440.087,386.745 446,391.5C 449.167,388.333 452.333,385.167 455.5,382C 451.875,376.585 448.375,371.085 445,365.5C 444.333,363.5 444.333,361.5 445,359.5C 449.71,350.868 453.543,341.868 456.5,332.5C 457.665,331.416 458.998,330.583 460.5,330C 466.762,328.749 472.929,327.249 479,325.5C 479.667,321.5 479.667,317.5 479,313.5C 471.778,311.736 464.611,309.736 457.5,307.5C 453.826,297.992 449.66,288.659 445,279.5C 444.333,277.5 444.333,275.5 445,273.5C 448.375,267.915 451.875,262.415 455.5,257C 452.333,253.833 449.167,250.667 446,247.5C 440.087,252.255 433.587,255.922 426.5,258.5C 417.068,254.119 407.402,250.286 397.5,247C 395.951,245.786 394.785,244.286 394,242.5C 392.381,236.239 391.214,229.905 390.5,223.5C 388.167,223.5 385.833,223.5 383.5,223.5C 383.5,239.5 383.5,255.5 383.5,271.5C 408.636,272.464 424.469,285.13 431,309.5C 434.509,330.659 427.676,347.493 410.5,360C 401.058,362.702 396.891,359.202 398,349.5C 402.197,345.39 406.197,341.056 410,336.5C 419.505,315.996 414.338,300.496 394.5,290C 390.914,288.892 387.247,288.392 383.5,288.5C 383.667,347.168 383.5,405.834 383,464.5C 378.833,480.667 368.667,490.833 352.5,495C 287.833,495.667 223.167,495.667 158.5,495C 142.333,490.833 132.167,480.667 128,464.5C 127.5,410.834 127.333,357.168 127.5,303.5C 121.491,303.666 115.491,303.499 109.5,303C 107.951,301.786 106.785,300.286 106,298.5C 104.433,291.5 102.933,284.5 101.5,277.5C 95.8693,275.938 90.3693,273.938 85,271.5C 79.1,274.868 73.2667,278.368 67.5,282C 64.0357,282.817 60.7024,282.483 57.5,281C 51,274.5 44.5,268 38,261.5C 37.0691,259.541 36.2357,257.541 35.5,255.5C 39.3662,248.269 43.3662,241.102 47.5,234C 45.3325,228.003 42.6659,222.336 39.5,217C 32.436,215.587 25.436,213.921 18.5,212C 17.6667,211.167 16.8333,210.333 16,209.5C 15.3333,197.5 15.3333,185.5 16,173.5C 17.3189,171.513 19.1523,170.346 21.5,170C 27.8802,168.655 34.2135,167.155 40.5,165.5C 42.9661,160.066 45.2995,154.566 47.5,149C 42.8823,142.206 38.8823,135.04 35.5,127.5C 36.2357,125.459 37.0691,123.459 38,121.5C 44.5,115 51,108.5 57.5,102C 59.6585,101.088 61.8252,100.255 64,99.5C 71.2474,103.084 78.2474,107.084 85,111.5C 90.3693,109.062 95.8693,107.062 101.5,105.5C 102.933,98.5003 104.433,91.5003 106,84.5C 106.785,82.714 107.951,81.214 109.5,80C 117.222,77.4123 121.555,80.079 122.5,88C 120.795,96.8577 118.962,105.691 117,114.5C 116.417,116.002 115.584,117.335 114.5,118.5C 104.254,121.959 94.2542,125.959 84.5,130.5C 77.4132,127.922 70.9132,124.255 65,119.5C 61.8333,122.667 58.6667,125.833 55.5,129C 59.1249,134.415 62.6249,139.915 66,145.5C 66.6667,147.5 66.6667,149.5 66,151.5C 61.2898,160.132 57.4565,169.132 54.5,178.5C 53.3349,179.584 52.0016,180.417 50.5,181C 44.2427,182.273 38.076,183.773 32,185.5C 31.3333,189.5 31.3333,193.5 32,197.5C 39.2423,199.183 46.409,201.183 53.5,203.5C 57.1735,213.008 61.3402,222.341 66,231.5C 66.6667,233.5 66.6667,235.5 66,237.5C 62.6249,243.085 59.1249,248.585 55.5,254C 58.6667,257.167 61.8333,260.333 65,263.5C 70.9132,258.745 77.4132,255.078 84.5,252.5C 93.9217,256.875 103.588,260.708 113.5,264C 115.049,265.214 116.215,266.714 117,268.5C 118.619,274.761 119.786,281.095 120.5,287.5C 122.833,287.5 125.167,287.5 127.5,287.5C 127.5,271.5 127.5,255.5 127.5,239.5C 102.364,238.536 86.5306,225.87 80,201.5C 76.2853,179.277 83.7853,162.11 102.5,150C 111.679,149.189 115.179,153.355 113,162.5C 95.9191,174.411 91.9191,189.744 101,208.5C 107.365,217.767 116.199,222.433 127.5,222.5C 127.333,163.832 127.5,105.166 128,46.5C 132.349,30.3186 142.516,19.9852 158.5,15.5 Z M 167.5,31.5 C 226.168,31.3333 284.834,31.5 343.5,32C 357.333,33.8333 365.167,41.6667 367,55.5C 367.142,188.972 367.142,322.305 367,455.5C 365.167,469.333 357.333,477.167 343.5,479C 284.833,479.667 226.167,479.667 167.5,479C 153.667,477.167 145.833,469.333 144,455.5C 143.333,322.167 143.333,188.833 144,55.5C 146.029,41.6393 153.862,33.6393 167.5,31.5 Z"/></g>
<g><path style="opacity:0.976" fill="#000000" d="M 227.5,47.5 C 246.17,47.3334 264.836,47.5001 283.5,48C 285.333,48.5 286.5,49.6667 287,51.5C 287.667,54.1667 287.667,56.8333 287,59.5C 286.5,61.3333 285.333,62.5 283.5,63C 264.833,63.6667 246.167,63.6667 227.5,63C 224.484,61.4714 223.151,58.9714 223.5,55.5C 223.282,51.9342 224.616,49.2675 227.5,47.5 Z"/></g>
<g><path style="opacity:0.893" fill="#000000" d="M 419.5,79.5 C 429.33,77.8292 433.163,81.8292 431,91.5C 428.565,96.2238 424.731,97.7238 419.5,96C 418.069,95.5348 416.903,94.7014 416,93.5C 415.333,90.1667 415.333,86.8333 416,83.5C 416.69,81.6498 417.856,80.3164 419.5,79.5 Z"/></g>
<g><path style="opacity:0.893" fill="#000000" d="M 419.5,111.5 C 429.33,109.829 433.163,113.829 431,123.5C 428.565,128.224 424.731,129.724 419.5,128C 418.069,127.535 416.903,126.701 416,125.5C 415.333,122.167 415.333,118.833 416,115.5C 416.69,113.65 417.856,112.316 419.5,111.5 Z"/></g>
<g><path style="opacity:0.893" fill="#000000" d="M 419.5,143.5 C 429.33,141.829 433.163,145.829 431,155.5C 428.565,160.224 424.731,161.724 419.5,160C 418.069,159.535 416.903,158.701 416,157.5C 415.333,154.167 415.333,150.833 416,147.5C 416.69,145.65 417.856,144.316 419.5,143.5 Z"/></g>
<g><path style="opacity:0.906" fill="#000000" d="M 211.5,215.5 C 221.33,213.829 225.163,217.829 223,227.5C 214.349,236.984 205.516,246.318 196.5,255.5C 205.516,264.682 214.349,274.016 223,283.5C 224.536,294.497 220.036,297.997 209.5,294C 198.667,283.167 187.833,272.333 177,261.5C 175,257.5 175,253.5 177,249.5C 188.395,237.937 199.895,226.604 211.5,215.5 Z"/></g>
<g><path style="opacity:0.934" fill="#000000" d="M 259.5,215.5 C 269.781,214.045 273.614,218.378 271,228.5C 265.823,249.543 260.489,270.543 255,291.5C 254.5,293.333 253.333,294.5 251.5,295C 241.208,296.953 237.375,292.786 240,282.5C 245.202,260.693 250.868,239.026 257,217.5C 257.995,216.934 258.828,216.267 259.5,215.5 Z"/></g>
<g><path style="opacity:0.907" fill="#000000" d="M 291.5,215.5 C 294.978,215.184 298.312,215.684 301.5,217C 312.333,227.833 323.167,238.667 334,249.5C 336,253.5 336,257.5 334,261.5C 323.167,272.333 312.333,283.167 301.5,294C 290.964,297.997 286.464,294.497 288,283.5C 296.651,274.016 305.484,264.682 314.5,255.5C 306.181,246.681 297.681,238.014 289,229.5C 286.425,224.034 287.258,219.367 291.5,215.5 Z"/></g>
<g><path style="opacity:0.889" fill="#000000" d="M 84.5,349.5 C 93.7051,349.206 97.2051,353.54 95,362.5C 90.3912,368.736 85.3912,369.069 80,363.5C 78.1903,357.519 79.6903,352.852 84.5,349.5 Z"/></g>
<g><path style="opacity:0.889" fill="#000000" d="M 84.5,381.5 C 93.7051,381.206 97.2051,385.54 95,394.5C 90.3912,400.736 85.3912,401.069 80,395.5C 78.1903,389.519 79.6903,384.852 84.5,381.5 Z"/></g>
<g><path style="opacity:0.889" fill="#000000" d="M 84.5,413.5 C 93.7051,413.206 97.2051,417.54 95,426.5C 90.3912,432.736 85.3912,433.069 80,427.5C 78.1903,421.519 79.6903,416.852 84.5,413.5 Z"/></g>
</svg>
